<svg width="122" height="28" viewBox="0 0 122 28" fill="none" xmlns="http://www.w3.org/2000/svg">
<g id="Group 295">
<g id="Group 311">
<g id="Star 6">
<path d="M108.74 3.36867C109.016 2.40132 110.387 2.40132 110.663 3.36867L112.256 8.94825C112.379 9.37767 112.771 9.67376 113.218 9.67376H118.621C119.558 9.67376 119.98 10.8471 119.258 11.4444L114.673 15.2359C114.367 15.489 114.24 15.8992 114.349 16.281L116.047 22.2273C116.316 23.1719 115.205 23.8984 114.448 23.2724L110.339 19.8746C109.969 19.5687 109.434 19.5687 109.064 19.8746L104.956 23.2724C104.199 23.8984 103.087 23.1719 103.357 22.2273L105.054 16.281C105.163 15.8992 105.036 15.489 104.73 15.2359L100.145 11.4444C99.4231 10.8471 99.8455 9.67376 100.783 9.67376H106.186C106.632 9.67376 107.025 9.37767 107.147 8.94825L108.74 3.36867Z" fill="white"/>
<path d="M109.221 3.50592C109.359 3.02224 110.044 3.02224 110.183 3.50591L111.775 9.08549C111.959 9.72962 112.548 10.1738 113.218 10.1738H118.621C119.089 10.1738 119.301 10.7604 118.94 11.0591L114.355 14.8506C113.896 15.2302 113.705 15.8455 113.868 16.4183L115.566 22.3645C115.701 22.8368 115.145 23.2001 114.766 22.8871L110.658 19.4893C110.103 19.0305 109.301 19.0305 108.746 19.4893L104.637 22.8871C104.259 23.2001 103.703 22.8368 103.838 22.3645L105.535 16.4183C105.699 15.8455 105.508 15.2302 105.049 14.8506L100.464 11.0591C100.103 10.7604 100.314 10.1738 100.783 10.1738H106.186C106.856 10.1738 107.444 9.72962 107.628 9.08549L109.221 3.50592Z" stroke="#A3A3A3" stroke-opacity="0.25"/>
</g>
<g id="Star 8">
<path d="M59.5424 3.36867C59.8185 2.40132 61.1894 2.40132 61.4656 3.36867L63.0583 8.94825C63.1809 9.37767 63.5733 9.67376 64.0199 9.67376H69.4231C70.3603 9.67376 70.7826 10.8471 70.0604 11.4444L65.4757 15.2359C65.1697 15.489 65.0424 15.8992 65.1514 16.281L66.8488 22.2273C67.1184 23.1719 66.0069 23.8984 65.2499 23.2724L61.1413 19.8746C60.7715 19.5687 60.2365 19.5687 59.8667 19.8746L55.7581 23.2724C55.0011 23.8984 53.8895 23.1719 54.1592 22.2273L55.8566 16.281C55.9656 15.8992 55.8383 15.489 55.5323 15.2359L50.9476 11.4444C50.2254 10.8471 50.6477 9.67376 51.5849 9.67376H56.9881C57.4347 9.67376 57.8271 9.37767 57.9497 8.94825L59.5424 3.36867Z" fill="#E4E000"/>
<path d="M60.0232 3.50592C60.1613 3.02224 60.8467 3.02224 60.9848 3.50591L62.5775 9.08549C62.7613 9.72962 63.35 10.1738 64.0199 10.1738H69.4231C69.8917 10.1738 70.1028 10.7604 69.7417 11.0591L65.1571 14.8506C64.698 15.2302 64.5071 15.8455 64.6706 16.4183L66.368 22.3645C66.5028 22.8368 65.947 23.2001 65.5686 22.8871L61.4599 19.4893C60.9052 19.0305 60.1028 19.0305 59.548 19.4893L55.4394 22.8871C55.0609 23.2001 54.5052 22.8368 54.64 22.3645L56.3373 16.4183C56.5008 15.8455 56.3099 15.2302 55.8509 14.8506L51.2662 11.0591C50.9051 10.7604 51.1163 10.1738 51.5849 10.1738H56.9881C57.658 10.1738 58.2466 9.72962 58.4305 9.08549L60.0232 3.50592Z" stroke="#A3A3A3" stroke-opacity="0.25"/>
</g>
<g id="Star 11">
<path d="M84.141 3.36867C84.4172 2.40132 85.7881 2.40132 86.0642 3.36867L87.6569 8.94825C87.7795 9.37767 88.1719 9.67376 88.6185 9.67376H94.0217C94.9589 9.67376 95.3812 10.8471 94.659 11.4444L90.0743 15.2359C89.7683 15.489 89.6411 15.8992 89.7501 16.281L91.4474 22.2273C91.7171 23.1719 90.6055 23.8984 89.8485 23.2724L85.7399 19.8746C85.3701 19.5687 84.8351 19.5687 84.4653 19.8746L80.3567 23.2724C79.5997 23.8984 78.4882 23.1719 78.7578 22.2273L80.4552 16.281C80.5642 15.8992 80.4369 15.489 80.1309 15.2359L75.5462 11.4444C74.824 10.8471 75.2463 9.67376 76.1835 9.67376H81.5867C82.0333 9.67376 82.4258 9.37767 82.5483 8.94825L84.141 3.36867Z" fill="#E4E000"/>
<path d="M84.6218 3.50592C84.7599 3.02224 85.4454 3.02224 85.5834 3.50591L87.1761 9.08549C87.36 9.72962 87.9486 10.1738 88.6185 10.1738H94.0217C94.4903 10.1738 94.7015 10.7604 94.3404 11.0591L89.7557 14.8506C89.2967 15.2302 89.1058 15.8455 89.2693 16.4183L90.9666 22.3645C91.1014 22.8368 90.5457 23.2001 90.1672 22.8871L86.0586 19.4893C85.5038 19.0305 84.7014 19.0305 84.1467 19.4893L80.0381 22.8871C79.6596 23.2001 79.1038 22.8368 79.2386 22.3645L80.936 16.4183C81.0995 15.8455 80.9086 15.2302 80.4495 14.8506L75.8649 11.0591C75.5038 10.7604 75.7149 10.1738 76.1835 10.1738H81.5867C82.2566 10.1738 82.8453 9.72962 83.0291 9.08549L84.6218 3.50592Z" stroke="#A3A3A3" stroke-opacity="0.25"/>
</g>
<g id="Star 13">
<path d="M35.3378 3.36867C35.6139 2.40132 36.9849 2.40132 37.261 3.36867L38.8537 8.94825C38.9763 9.37767 39.3687 9.67376 39.8153 9.67376H45.2185C46.1557 9.67376 46.578 10.8471 45.8558 11.4444L41.2711 15.2359C40.9651 15.489 40.8378 15.8992 40.9468 16.281L42.6442 22.2273C42.9138 23.1719 41.8023 23.8984 41.0453 23.2724L36.9367 19.8746C36.5669 19.5687 36.0319 19.5687 35.6621 19.8746L31.5535 23.2724C30.7965 23.8984 29.685 23.1719 29.9546 22.2273L31.652 16.281C31.761 15.8992 31.6337 15.489 31.3277 15.2359L26.743 11.4444C26.0208 10.8471 26.4431 9.67376 27.3803 9.67376H32.7835C33.2301 9.67376 33.6225 9.37767 33.7451 8.94825L35.3378 3.36867Z" fill="#E4E000"/>
<path d="M35.8186 3.50592C35.9567 3.02224 36.6421 3.02224 36.7802 3.50591L38.3729 9.08549C38.5568 9.72962 39.1454 10.1738 39.8153 10.1738H45.2185C45.6871 10.1738 45.8983 10.7604 45.5372 11.0591L40.9525 14.8506C40.4934 15.2302 40.3025 15.8455 40.466 16.4183L42.1634 22.3645C42.2982 22.8368 41.7425 23.2001 41.364 22.8871L37.2553 19.4893C36.7006 19.0305 35.8982 19.0305 35.3434 19.4893L31.2348 22.8871C30.8563 23.2001 30.3006 22.8368 30.4354 22.3645L32.1328 16.4183C32.2963 15.8455 32.1053 15.2302 31.6463 14.8506L27.0616 11.0591C26.7005 10.7604 26.9117 10.1738 27.3803 10.1738H32.7835C33.4534 10.1738 34.042 9.72962 34.2259 9.08549L35.8186 3.50592Z" stroke="#A3A3A3" stroke-opacity="0.25"/>
</g>
<g id="Star 12">
<path d="M11.3446 3.36867C11.6208 2.40132 12.9917 2.40132 13.2678 3.36867L14.8605 8.94825C14.9831 9.37767 15.3755 9.67376 15.8221 9.67376H21.2253C22.1625 9.67376 22.5848 10.8471 21.8626 11.4444L17.278 15.2359C16.9719 15.489 16.8447 15.8992 16.9537 16.281L18.651 22.2273C18.9207 23.1719 17.8091 23.8984 17.0521 23.2724L12.9435 19.8746C12.5737 19.5687 12.0388 19.5687 11.6689 19.8746L7.56032 23.2724C6.80333 23.8984 5.69179 23.1719 5.96143 22.2273L7.6588 16.281C7.7678 15.8992 7.64053 15.489 7.33451 15.2359L2.74982 11.4444C2.02763 10.8471 2.44996 9.67376 3.38712 9.67376H8.79035C9.23693 9.67376 9.62937 9.37767 9.75195 8.94825L11.3446 3.36867Z" fill="#E4E000"/>
<path d="M11.8254 3.50592C11.9635 3.02224 12.649 3.02224 12.787 3.50591L14.3797 9.08549C14.5636 9.72962 15.1523 10.1738 15.8221 10.1738H21.2253C21.6939 10.1738 21.9051 10.7604 21.544 11.0591L16.9593 14.8506C16.5003 15.2302 16.3094 15.8455 16.4729 16.4183L18.1702 22.3645C18.3051 22.8368 17.7493 23.2001 17.3708 22.8871L13.2622 19.4893C12.7074 19.0305 11.905 19.0305 11.3503 19.4893L7.24167 22.8871C6.86317 23.2001 6.3074 22.8368 6.44222 22.3645L8.13959 16.4183C8.3031 15.8455 8.11218 15.2302 7.65316 14.8506L3.06847 11.0591C2.70738 10.7604 2.91854 10.1738 3.38712 10.1738H8.79035C9.46021 10.1738 10.0489 9.72962 10.2327 9.08549L11.8254 3.50592Z" stroke="#A3A3A3" stroke-opacity="0.25"/>
</g>
</g>
</g>
</svg>
