<svg width="123" height="28" viewBox="0 0 123 28" fill="none" xmlns="http://www.w3.org/2000/svg">
<g id="Group 295">
<g id="Star 6">
<path d="M109.738 3.36849C110.014 2.40116 111.385 2.40116 111.661 3.36849L113.254 8.94826C113.377 9.37767 113.769 9.67376 114.216 9.67376H119.619C120.557 9.67376 120.979 10.8471 120.257 11.4444L115.672 15.2359C115.366 15.489 115.239 15.8992 115.348 16.281L117.045 22.2274C117.315 23.1719 116.203 23.8985 115.446 23.2725L111.337 19.8745C110.967 19.5687 110.432 19.5687 110.063 19.8745L105.954 23.2725C105.197 23.8985 104.085 23.1719 104.355 22.2274L106.052 16.281C106.161 15.8992 106.034 15.489 105.728 15.2359L101.143 11.4444C100.421 10.8471 100.843 9.67376 101.78 9.67376H107.184C107.63 9.67376 108.023 9.37767 108.145 8.94826L109.738 3.36849Z" fill="#E4E000"/>
<path d="M110.219 3.50574C110.357 3.02207 111.043 3.02207 111.181 3.50574L112.774 9.08551C112.957 9.72963 113.546 10.1738 114.216 10.1738H119.619C120.088 10.1738 120.299 10.7605 119.938 11.0591L115.353 14.8506C114.894 15.2302 114.703 15.8455 114.867 16.4183L116.564 22.3646C116.699 22.8369 116.143 23.2002 115.765 22.8872L111.656 19.4892C111.101 19.0305 110.299 19.0305 109.744 19.4892L105.635 22.8872C105.256 23.2002 104.701 22.8369 104.836 22.3646L106.533 16.4183C106.697 15.8455 106.506 15.2302 106.047 14.8506L101.462 11.0591C101.101 10.7605 101.312 10.1738 101.78 10.1738H107.184C107.854 10.1738 108.442 9.72963 108.626 9.08551L110.219 3.50574Z" stroke="#A3A3A3" stroke-opacity="0.25"/>
</g>
<g id="Star 8">
<path d="M60.5386 3.36849C60.8147 2.40116 62.1856 2.40116 62.4618 3.36849L64.0546 8.94826C64.1772 9.37767 64.5696 9.67376 65.0162 9.67376H70.4198C71.3569 9.67376 71.7793 10.8471 71.0571 11.4444L66.4722 15.2359C66.1661 15.489 66.0389 15.8992 66.1479 16.281L67.8453 22.2274C68.115 23.1719 67.0035 23.8985 66.2465 23.2725L62.1375 19.8745C61.7677 19.5687 61.2327 19.5687 60.8629 19.8745L56.7539 23.2725C55.9969 23.8985 54.8854 23.1719 55.1551 22.2274L56.8525 16.281C56.9615 15.8992 56.8343 15.489 56.5282 15.2359L51.9433 11.4444C51.2211 10.8471 51.6434 9.67376 52.5806 9.67376H57.9842C58.4308 9.67376 58.8232 9.37767 58.9458 8.94826L60.5386 3.36849Z" fill="#E4E000"/>
<path d="M61.0194 3.50574C61.1575 3.02207 61.8429 3.02207 61.981 3.50574L63.5738 9.08551C63.7577 9.72963 64.3464 10.1738 65.0162 10.1738H70.4198C70.8884 10.1738 71.0995 10.7605 70.7384 11.0591L66.1535 14.8506C65.6945 15.2302 65.5036 15.8455 65.6671 16.4183L67.3645 22.3646C67.4994 22.8369 66.9436 23.2002 66.5651 22.8872L62.4561 19.4892C61.9014 19.0305 61.099 19.0305 60.5443 19.4892L56.4353 22.8872C56.0568 23.2002 55.501 22.8369 55.6359 22.3646L57.3333 16.4183C57.4968 15.8455 57.3059 15.2302 56.8469 14.8506L52.262 11.0591C51.9009 10.7605 52.112 10.1738 52.5806 10.1738H57.9842C58.654 10.1738 59.2427 9.72963 59.4266 9.08551L61.0194 3.50574Z" stroke="#A3A3A3" stroke-opacity="0.25"/>
</g>
<g id="Star 11">
<path d="M85.1382 3.36849C85.4144 2.40116 86.7853 2.40116 87.0614 3.36849L88.6542 8.94826C88.7768 9.37767 89.1692 9.67376 89.6158 9.67376H95.0194C95.9566 9.67376 96.3789 10.8471 95.6567 11.4444L91.0718 15.2359C90.7657 15.489 90.6385 15.8992 90.7475 16.281L92.4449 22.2274C92.7146 23.1719 91.6031 23.8985 90.8461 23.2725L86.7371 19.8745C86.3673 19.5687 85.8323 19.5687 85.4625 19.8745L81.3535 23.2725C80.5965 23.8985 79.485 23.1719 79.7547 22.2274L81.4521 16.281C81.5611 15.8992 81.4339 15.489 81.1278 15.2359L76.5429 11.4444C75.8207 10.8471 76.2431 9.67376 77.1802 9.67376H82.5838C83.0304 9.67376 83.4228 9.37767 83.5454 8.94826L85.1382 3.36849Z" fill="#E4E000"/>
<path d="M85.619 3.50574C85.7571 3.02207 86.4425 3.02207 86.5806 3.50574L88.1734 9.08551C88.3573 9.72963 88.946 10.1738 89.6158 10.1738H95.0194C95.488 10.1738 95.6991 10.7605 95.338 11.0591L90.7531 14.8506C90.2941 15.2302 90.1032 15.8455 90.2667 16.4183L91.9642 22.3646C92.099 22.8369 91.5432 23.2002 91.1647 22.8872L87.0557 19.4892C86.501 19.0305 85.6986 19.0305 85.1439 19.4892L81.0349 22.8872C80.6564 23.2002 80.1006 22.8369 80.2355 22.3646L81.9329 16.4183C82.0964 15.8455 81.9055 15.2302 81.4465 14.8506L76.8616 11.0591C76.5005 10.7605 76.7116 10.1738 77.1802 10.1738H82.5838C83.2536 10.1738 83.8423 9.72963 84.0262 9.08551L85.619 3.50574Z" stroke="#A3A3A3" stroke-opacity="0.25"/>
</g>
<g id="Star 7">
<path d="M35.9385 3.36849C36.2147 2.40116 37.5855 2.40116 37.8617 3.36849L39.4545 8.94826C39.5771 9.37767 39.9695 9.67376 40.4161 9.67376H45.8197C46.7569 9.67376 47.1792 10.8471 46.457 11.4444L41.8721 15.2359C41.566 15.489 41.4388 15.8992 41.5478 16.281L43.2452 22.2274C43.5149 23.1719 42.4034 23.8985 41.6464 23.2725L37.5374 19.8745C37.1676 19.5687 36.6326 19.5687 36.2628 19.8745L32.1538 23.2725C31.3968 23.8985 30.2853 23.1719 30.555 22.2274L32.2524 16.281C32.3614 15.8992 32.2342 15.489 31.9281 15.2359L27.3432 11.4444C26.621 10.8471 27.0433 9.67376 27.9805 9.67376H33.3841C33.8307 9.67376 34.2231 9.37767 34.3457 8.94826L35.9385 3.36849Z" fill="#E4E000"/>
<path d="M36.4193 3.50574C36.5574 3.02207 37.2428 3.02207 37.3809 3.50574L38.9737 9.08551C39.1576 9.72963 39.7463 10.1738 40.4161 10.1738H45.8197C46.2883 10.1738 46.4994 10.7605 46.1383 11.0591L41.5534 14.8506C41.0944 15.2302 40.9035 15.8455 41.067 16.4183L42.7644 22.3646C42.8993 22.8369 42.3435 23.2002 41.965 22.8872L37.856 19.4892C37.3013 19.0305 36.4989 19.0305 35.9442 19.4892L31.8352 22.8872C31.4567 23.2002 30.9009 22.8369 31.0358 22.3646L32.7332 16.4183C32.8967 15.8455 32.7058 15.2302 32.2468 14.8506L27.6619 11.0591C27.3008 10.7605 27.5119 10.1738 27.9805 10.1738H33.3841C34.0539 10.1738 34.6426 9.72963 34.8265 9.08551L36.4193 3.50574Z" stroke="#A3A3A3" stroke-opacity="0.25"/>
</g>
<g id="Star 12">
<path d="M11.3384 3.36849C11.6146 2.40116 12.9854 2.40116 13.2616 3.36849L14.8544 8.94826C14.977 9.37767 15.3694 9.67376 15.816 9.67376H21.2196C22.1568 9.67376 22.5791 10.8471 21.8569 11.4444L17.272 15.2359C16.9659 15.489 16.8387 15.8992 16.9477 16.281L18.6451 22.2274C18.9148 23.1719 17.8033 23.8985 17.0463 23.2725L12.9373 19.8745C12.5675 19.5687 12.0325 19.5687 11.6627 19.8745L7.55373 23.2725C6.79673 23.8985 5.68522 23.1719 5.95486 22.2274L7.65233 16.281C7.76134 15.8992 7.63406 15.489 7.32802 15.2359L2.74314 11.4444C2.02092 10.8471 2.44325 9.67376 3.38042 9.67376H8.78399C9.23056 9.67376 9.623 9.37767 9.74558 8.94826L11.3384 3.36849Z" fill="#E4E000"/>
<path d="M11.8192 3.50574C11.9573 3.02207 12.6427 3.02207 12.7808 3.50574L14.3736 9.08551C14.5575 9.72963 15.1462 10.1738 15.816 10.1738H21.2196C21.6882 10.1738 21.8993 10.7605 21.5382 11.0591L16.9533 14.8506C16.4943 15.2302 16.3034 15.8455 16.4669 16.4183L18.1643 22.3646C18.2992 22.8369 17.7434 23.2002 17.3649 22.8872L13.2559 19.4892C12.7012 19.0305 11.8988 19.0305 11.3441 19.4892L7.23509 22.8872C6.85659 23.2002 6.30083 22.8369 6.43566 22.3646L8.13313 16.4183C8.29664 15.8455 8.10572 15.2302 7.64667 14.8506L3.06178 11.0591C2.70067 10.7605 2.91183 10.1738 3.38042 10.1738H8.78399C9.45384 10.1738 10.0425 9.72963 10.2264 9.08551L11.8192 3.50574Z" stroke="#A3A3A3" stroke-opacity="0.25"/>
</g>
</g>
</svg>
