<svg width="202" height="30" viewBox="0 0 202 30" fill="none" xmlns="http://www.w3.org/2000/svg">
<g id="Vector">
<path d="M16.5244 0.366211L20.3631 11.6656H32.7852L22.7355 18.6491L26.5741 29.9485L16.5244 22.9651L6.47472 29.9485L10.3134 18.6491L0.263672 11.6656H12.6858L16.5244 0.366211Z" fill="#D9D9D9"/>
<path d="M58.7195 0.366211L62.5582 11.6656H74.9803L64.9306 18.6491L68.7692 29.9485L58.7195 22.9651L48.6699 29.9485L52.5085 18.6491L42.4588 11.6656H54.8809L58.7195 0.366211Z" fill="#D9D9D9"/>
<path d="M100.915 0.366211L104.753 11.6656H117.175L107.126 18.6491L110.964 29.9485L100.915 22.9651L90.8649 29.9485L94.7036 18.6491L84.6539 11.6656H97.076L100.915 0.366211Z" fill="#D9D9D9"/>
<path d="M143.11 0.366211L146.948 11.6656H159.371L149.321 18.6491L153.16 29.9485L143.11 22.9651L133.06 29.9485L136.899 18.6491L126.849 11.6656H139.271L143.11 0.366211Z" fill="#D9D9D9"/>
<path d="M185.305 0.366211L189.144 11.6656H201.566L191.516 18.6491L195.355 29.9485L185.305 22.9651L175.255 29.9485L179.094 18.6491L169.044 11.6656H181.466L185.305 0.366211Z" fill="#D9D9D9"/>
</g>
</svg>
